<svg id="Layer_2" data-name="Layer 2" xmlns="http://www.w3.org/2000/svg" width="600" height="600" viewBox="0 0 600 600"><defs><style></style></defs><title>Background2</title><path fill="#f19a98" d="M567.69,353.29a104.72,104.72,0,0,0,10.94-10c29.54-32.88,28.3-86.54-2.76-119.87a78.86,78.86,0,0,0-36.73-22.61c-14.28-3.92-24.39-17.64-25.42-33.68-2.27-35.45-23.51-68.35-56.73-82.23a83,83,0,0,0-32.86-6.51c-15.67.15-30.19-9.2-37.77-24.18C370,21.84,337.69-.19,300.54-.19c-32.38,0-61,16.73-78.73,42.46-13.94,20.3-34.6,33.76-57.65,36.88A84.47,84.47,0,0,0,143,84.93c-30,12.55-50.27,40.65-55.56,72.12-3.56,21.21-16.65,39.13-35.13,46.71a80.13,80.13,0,0,0-28.19,19.69c-31.06,33.33-32.3,87-2.76,119.87L22,344c18,19.11,22.58,48.57,11.17,73a68.53,68.53,0,0,0-3,7.57c-10.77,32.64,2.63,73.76,32.9,79.74,13.22,2.61,25.46,5.45,36.83,8.47,17.16,4.56,29.22,21.37,29.22,40.67h0c0,12,9,21.86,20,21.86h80.47a24.15,24.15,0,0,1,12.73,3.64c19.3,11.88,35.72,20,57.44,20s40.37-8.3,61.73-20.31a25.71,25.71,0,0,1,12.63-3.37h76.76c11,0,20-9.84,20-21.86V531.21a11.22,11.22,0,0,1,7.21-10.75,477,477,0,0,1,58.84-16.18c30.21-6.34,43.67-47.1,32.9-79.74a66.15,66.15,0,0,0-8.74-17.49C549.27,390.22,552.15,366,567.69,353.29Z"/></svg>