<svg id="Layer_1" data-name="Layer 1" xmlns="http://www.w3.org/2000/svg" width="600" height="600" viewBox="0 0 600 600"><defs><style></style></defs><title>background 1</title><path fill="#5b819c" d="M333.59,540.17l72,37.85c53,27.85,114.87-17.12,104.75-76.1L496.6,421.74a72.19,72.19,0,0,1,20.76-63.9l58.26-56.79c42.85-41.77,19.2-114.54-40-123.14l-80.51-11.7a72.21,72.21,0,0,1-54.36-39.49l-36-72.95c-26.48-53.66-103-53.66-129.48,0l-36,72.95a72.21,72.21,0,0,1-54.36,39.49l-80.51,11.7c-59.21,8.6-82.86,81.37-40,123.14l58.26,56.79a72.19,72.19,0,0,1,20.76,63.9L89.65,501.92c-10.12,59,51.78,104,104.75,76.1l72-37.85A72.16,72.16,0,0,1,333.59,540.17Z"/></svg>