<?xml version="1.0" encoding="iso-8859-1"?>
<!-- Generator: Adobe Illustrator 19.0.0, SVG Export Plug-In . SVG Version: 6.00 Build 0)  -->
<svg version="1.1" id="Layer_1" xmlns="http://www.w3.org/2000/svg" xmlns:xlink="http://www.w3.org/1999/xlink" x="0px" y="0px"
	 viewBox="0 0 512.001 512.001" style="enable-background:new 0 0 512.001 512.001;" xml:space="preserve" fill="#fff">
<g>
	<g>
		<path d="M509.101,315.058L452.912,77.016c-3.219-13.638-12.086-25.374-24.324-32.198c-12.241-6.824-26.883-8.197-40.179-3.765
			l-65.426,21.809c-8.736,2.912-13.457,12.356-10.546,21.092c2.912,8.736,12.354,13.458,21.092,10.546l65.006-21.669
			c4.651-1.551,9.799-1.207,14.044,1.245c4.016,2.32,6.81,6.075,7.878,10.601l42.864,181.591
			c-6.615-2.127-13.656-3.263-20.961-3.263c-20.938,0-39.182,9.244-52.965,26.785c-13.783-17.541-32.028-26.785-52.965-26.785
			c-19.663,0-37.647,7.951-50.638,22.391c-8.161,9.072-13.864,20.166-16.774,32.281h-26.031
			c-2.91-12.114-8.613-23.208-16.774-32.281c-12.99-14.439-30.974-22.391-50.637-22.391c-20.938,0-39.183,9.245-52.966,26.785
			c-13.783-17.54-32.028-26.785-52.966-26.785c-7.585,0-14.914,1.195-21.81,3.477L90.745,84.679
			c1.088-4.613,3.968-8.425,8.108-10.733c4.14-2.309,8.896-2.755,13.393-1.255L177.672,94.5c8.738,2.91,18.179-1.81,21.092-10.546
			c2.912-8.736-1.809-18.179-10.545-21.092l-65.427-21.81c-13.293-4.43-27.938-3.058-40.178,3.765
			c-12.24,6.824-21.105,18.561-24.324,32.198L0.775,320.67C0.432,322.124,0,335.429,0,336.544
			c0,41.751,31.785,67.519,75.779,103.185c10.838,8.786,23.123,18.746,35.976,29.762c3.122,2.677,6.987,4.014,10.852,4.014
			c3.865,0,7.729-1.338,10.852-4.014c12.854-11.016,25.138-20.976,35.976-29.762c38.675-31.354,67.906-55.064,74.41-88.703h24.312
			c6.504,33.64,35.735,57.349,74.41,88.703c10.839,8.786,23.124,18.746,35.976,29.762c3.123,2.677,6.987,4.014,10.852,4.014
			s7.729-1.338,10.852-4.014c12.854-11.016,25.137-20.976,35.976-29.762c43.992-35.665,75.779-61.434,75.779-103.19
			C511.998,329.334,511.054,322.088,509.101,315.058z M148.433,413.824c-7.938,6.435-16.639,13.489-25.826,21.167
			c-9.187-7.678-17.888-14.732-25.826-21.167c-42.839-34.73-63.432-52.523-63.432-77.28c0-19.483,12.719-40.189,36.292-40.189
			c26.825,0,36.48,31.759,36.93,33.294c2.04,7.161,8.572,12.149,16.025,12.149c7.478,0,14.029-4.936,16.045-12.135
			c0.397-1.359,10.029-33.306,36.933-33.306c19.84,0,31.987,14.669,35.336,30.932C217.22,357.932,192.736,377.907,148.433,413.824z
			 M415.22,413.824c-7.939,6.435-16.64,13.489-25.826,21.167c-9.187-7.678-17.888-14.732-25.826-21.167
			c-44.041-35.704-69.887-56.431-62.097-88.214c3.818-15.58,15.802-29.255,34.958-29.255c26.825,0,36.479,31.759,36.93,33.294
			c2.04,7.161,8.572,12.149,16.024,12.149c7.478,0,14.029-4.936,16.045-12.135c0.397-1.359,10.028-33.306,36.933-33.306
			c16.551,0,29.681,10.474,34.444,27.038C484.48,355.911,466.542,372.217,415.22,413.824z"/>
	</g>
</g>
</svg>
