<svg id="Capa_1" data-name="Capa 1" xmlns="http://www.w3.org/2000/svg" viewBox="0 0 455.73 455.73"><defs><style>.cls-1{fill:#0077b5;}.cls-2{fill:#fff;}</style></defs><title>linkedin</title><rect class="cls-1" width="455.73" height="455.73" rx="27.62"/><g id="in"><path class="cls-2" d="M107.25,69.21a38.31,38.31,0,0,1,38.05,38.24c-.05,22-18.28,38.52-38.3,38-20.31.41-38.16-16.55-38.15-38.19A38.33,38.33,0,0,1,107.25,69.21Z"/><rect class="cls-2" x="74.2" y="174.67" width="65.74" height="211.8"/><path class="cls-2" d="M314.46,169.26H303a64.41,64.41,0,0,0-56.36,33.27,4.45,4.45,0,0,0-.6-.08V174.67H181.51v211.8l65.74,0V264.93c0-20.07,15.8-36.93,35.87-37.47A36.9,36.9,0,0,1,321,264.33V386.5l65.87,0V241.68h0A72.42,72.42,0,0,0,314.46,169.26Z"/></g></svg>